<svg width="174" height="45" viewBox="0 0 174 45" fill="none" xmlns="http://www.w3.org/2000/svg">
<path d="M0.75 11.3125C0.75 9.33333 1.23958 7.53125 2.21875 5.90625C3.21875 4.28125 4.55208 2.98958 6.21875 2.03125C7.90625 1.05208 9.76042 0.5625 11.7812 0.5625H34.7812V7.125H11.7812C10.5729 7.125 9.53125 7.55208 8.65625 8.40625C7.78125 9.26042 7.34375 10.2917 7.34375 11.5V14.5625C7.34375 15.6667 7.78125 16.6146 8.65625 17.4062C9.53125 18.1979 10.5729 18.5938 11.7812 18.5938H25.9375C27.9792 18.5938 29.8333 19.0833 31.5 20.0625C33.1667 21.0208 34.4896 22.3229 35.4688 23.9688C36.4688 25.5938 36.9688 27.3958 36.9688 29.375V34.2188C36.9688 36.1979 36.4688 38.0104 35.4688 39.6562C34.4896 41.2812 33.1667 42.5833 31.5 43.5625C29.8333 44.5208 27.9792 45 25.9375 45H0.78125V38.4062H25.9375C27.1667 38.4062 28.2083 38 29.0625 37.1875C29.9375 36.3542 30.375 35.3542 30.375 34.1875V29.4062C30.375 28.2396 29.9375 27.2396 29.0625 26.4062C28.2083 25.5729 27.1667 25.1562 25.9375 25.1562H11.7812C9.76042 25.1562 7.90625 24.6875 6.21875 23.75C4.55208 22.7917 3.21875 21.5104 2.21875 19.9062C1.23958 18.3021 0.75 16.5312 0.75 14.5938V11.3125Z" fill="black"/>
<path d="M69.375 0.5625H92.875C94.8958 0.5625 96.7292 1.0625 98.375 2.0625C100.042 3.04167 101.365 4.35417 102.344 6C103.344 7.64583 103.844 9.47917 103.844 11.5V15.9375C103.844 17.9167 103.344 19.7292 102.344 21.375C101.365 23 100.042 24.3021 98.375 25.2812C96.7292 26.2396 94.8958 26.7188 92.875 26.7188H79.7188V20.1562H92.875C94.1042 20.1562 95.1458 19.7396 96 18.9062C96.8542 18.0729 97.2812 17.0521 97.2812 15.8438V11.5C97.2812 10.2917 96.8542 9.26042 96 8.40625C95.1458 7.55208 94.1042 7.125 92.875 7.125H75.9688V45H69.375V0.5625Z" fill="black"/>
<path d="M136.375 0.5625H159.875C161.896 0.5625 163.729 1.0625 165.375 2.0625C167.042 3.04167 168.365 4.35417 169.344 6C170.344 7.64583 170.844 9.47917 170.844 11.5V15.9375C170.844 17.9583 170.354 19.7812 169.375 21.4062C168.417 23.0312 167.104 24.3229 165.438 25.2812C163.771 26.2396 161.906 26.7188 159.844 26.7188L173.094 45H165.062L151.812 26.7188H146.719V20.1562H159.875C161.104 20.1562 162.146 19.7396 163 18.9062C163.854 18.0521 164.281 17.0312 164.281 15.8438V11.5C164.281 10.2917 163.854 9.26042 163 8.40625C162.146 7.55208 161.104 7.125 159.875 7.125H142.969V45H136.375V0.5625Z" fill="black"/>
</svg>
